<svg xmlns="http://www.w3.org/2000/svg" id="_&#xB808;&#xC774;&#xC5B4;_2" viewBox="0 0 1134 67.48"><defs><style>.cls-1{fill:#b09856;}</style></defs><g id="_&#xB808;&#xC774;&#xC5B4;_1-2"><g><path class="cls-1" d="M109.91,66.39H33.71C15.12,66.39,0,51.5,0,33.2S15.12,0,33.71,0H109.91s0,11.81,0,11.81H33.71c-12.08,0-21.9,9.59-21.9,21.39s9.83,21.39,21.9,21.39H109.91v11.81Z"></path><g><rect class="cls-1" x="148.72" y="0" width="104.01" height="11.81"></rect><rect class="cls-1" x="148.72" y="27.29" width="104.01" height="11.81"></rect><rect class="cls-1" x="148.72" y="54.58" width="104.01" height="11.81"></rect></g><g><rect class="cls-1" x="768.47" width="104.01" height="11.81"></rect><rect class="cls-1" x="768.47" y="27.29" width="104.01" height="11.81"></rect><rect class="cls-1" x="768.47" y="54.58" width="104.01" height="11.81"></rect></g><path class="cls-1" d="M392.87,67.31h-77.24c-13.29,0-24.1-10.81-24.1-24.1V0h11.81V43.21c0,6.78,5.51,12.29,12.29,12.29h77.24v11.81Z"></path><path class="cls-1" d="M533.01,67.31h-77.24c-13.29,0-24.1-10.81-24.1-24.1V0h11.81V43.21c0,6.78,5.51,12.29,12.29,12.29h77.24s0,11.81,0,11.81Z"></path><rect class="cls-1" x="571.81" y=".07" width="11.81" height="67.24"></rect><polygon class="cls-1" points="717.86 0 717.86 56.41 632.05 0 622.43 0 622.43 67.48 634.23 67.48 634.23 14.44 713.56 67.48 729.67 67.48 729.67 0 717.86 0"></polygon><polygon class="cls-1" points="1134 0 1117.3 0 1077.14 58.61 1034.62 0 1015.84 0 970.72 58.85 927.98 0 911.29 0 962.91 67.48 978.54 67.48 1025.23 7.53 1069.55 67.48 1084.72 67.48 1134 0"></polygon></g></g></svg>